<svg width="16" height="16" viewBox="0 0 16 16" fill="none" xmlns="http://www.w3.org/2000/svg">
  <path d="M8 0C3.6 0 0 3.6 0 8C0 12.4 3.6 16 8 16C12.4 16 16 12.4 16 8C16 3.6 12.4 0 8 0ZM13.4 5H11.2C10.9 3.7 10.5 2.6 10 1.7C11.6 2.3 12.9 3.5 13.4 5ZM8 2C8.7 3.2 9.2 4.5 9.5 6H6.5C6.8 4.5 7.3 3.2 8 2ZM2.2 9C2.1 8.7 2 8.3 2 8C2 7.7 2.1 7.3 2.2 7H4.8C4.7 7.3 4.7 7.7 4.7 8C4.7 8.3 4.7 8.7 4.8 9H2.2ZM2.6 11H4.8C5.1 12.3 5.5 13.4 6 14.3C4.4 13.7 3.1 12.5 2.6 11ZM4.8 5H2.6C3.1 3.5 4.4 2.3 6 1.7C5.5 2.6 5.1 3.7 4.8 5ZM8 14C7.3 12.8 6.8 11.5 6.5 10H9.5C9.2 11.5 8.7 12.8 8 14ZM9.8 9H6.2C6.1 8.7 6 8.3 6 8C6 7.7 6.1 7.3 6.2 7H9.8C9.9 7.3 10 7.7 10 8C10 8.3 9.9 8.7 9.8 9ZM10 14.3C10.5 13.4 10.9 12.3 11.2 11H13.4C12.9 12.5 11.6 13.7 10 14.3ZM11.3 9C11.4 8.7 11.4 8.3 11.4 8C11.4 7.7 11.4 7.3 11.3 7H13.9C14 7.3 14.1 7.7 14.1 8C14.1 8.3 14 8.7 13.9 9H11.3Z" fill="white"/>
</svg> 